<svg xmlns="http://www.w3.org/2000/svg" version="1.1" xmlns:xlink="http://www.w3.org/1999/xlink" xmlns:svgjs="http://svgjs.dev/svgjs" width="1000" height="590" viewBox="0 0 1000 590"><g transform="matrix(1,0,0,1,-0.6060417461540624,0.2823952082142114)"><svg viewBox="0 0 396 234" data-background-color="#000000" preserveAspectRatio="xMidYMid meet" height="590" width="1000" xmlns="http://www.w3.org/2000/svg" xmlns:xlink="http://www.w3.org/1999/xlink"><g id="tight-bounds" transform="matrix(1,0,0,1,0.23999253147701438,-0.1120008113934432)"><svg viewBox="0 0 395.52 234.2240016227869" height="234.2240016227869" width="395.52"><g><svg viewBox="0 0 395.52000000000004 234.22400162278691" height="234.2240016227869" width="395.52"><g transform="matrix(1,0,0,1,0,144.7598296037978)"><svg viewBox="0 0 395.52000000000004 89.4641720189891" height="89.4641720189891" width="395.52000000000004"><g id="textblocktransform"><svg viewBox="0 0 395.52000000000004 89.4641720189891" height="89.4641720189891" width="395.52000000000004" id="textblock"><g><svg viewBox="0 0 395.52000000000004 89.4641720189891" height="89.4641720189891" width="395.52000000000004"><g transform="matrix(1,0,0,1,0,0)"><svg width="395.52000000000004" viewBox="1.5499999523162842 -40.5 179.0399932861328 40.5" height="89.4641720189891" data-palette-color="#2ecc40"><path d="M13.45 0L7.3 0 1.55-40.5 7.75-40.5 11.1-14.25 15.3-40.4 20.35-40.4 24.65-14.25 27.95-40.5 34.05-40.5 28.4 0 22.4 0 17.9-27.15 13.45 0ZM42.3 0L35.35 0 43.45-40.5 51.35-40.5 59.45 0 52.6 0 51-9.35 43.95-9.35 42.3 0ZM47.45-31.05L44.7-14.05 50.2-14.05 47.45-31.05ZM70.7 0L63.3 0 63.3-40.5 73-40.5Q77.09-40.5 79.92-39.53 82.75-38.55 84.22-36.2 85.7-33.85 85.7-29.8L85.7-29.8Q85.7-27.35 85.25-25.4 84.8-23.45 83.72-22.08 82.65-20.7 80.75-19.95L80.75-19.95 86.4 0 79 0 74.09-18.55 70.7-18.55 70.7 0ZM70.7-35.45L70.7-23.2 73-23.2Q75.15-23.2 76.42-23.83 77.7-24.45 78.25-25.83 78.8-27.2 78.8-29.35L78.8-29.35Q78.8-32.4 77.67-33.93 76.55-35.45 73.4-35.45L73.4-35.45 70.7-35.45ZM97.54 0L91.24 0 91.24-40.5 96.39-40.5 106.24-17.4 106.24-40.5 112.34-40.5 112.34 0 107.44 0 97.54-24.2 97.54 0ZM125.99 0L118.69 0 118.69-40.5 125.99-40.5 125.99 0ZM138.54 0L132.24 0 132.24-40.5 137.39-40.5 147.24-17.4 147.24-40.5 153.34-40.5 153.34 0 148.44 0 138.54-24.2 138.54 0ZM165.78 0L159.49 0 159.49-40.5 164.63-40.5 174.49-17.4 174.49-40.5 180.59-40.5 180.59 0 175.69 0 165.78-24.2 165.78 0Z" opacity="1" transform="matrix(1,0,0,1,0,0)" fill="#2ecc40" class="wordmark-text-0" data-fill-palette-color="primary" id="text-0"></path></svg></g></svg></g></svg></g></svg></g><g transform="matrix(1,0,0,1,118.9193465991454,0)"><svg viewBox="0 0 157.68130680170924 123.63948573024295" height="123.63948573024295" width="157.68130680170924"><g><svg xmlns="http://www.w3.org/2000/svg" xmlns:xlink="http://www.w3.org/1999/xlink" version="1.1" baseProfile="basic" x="8" y="0" viewBox="5 10 80.10000610351562 69.9000015258789" xml:space="preserve" height="123.63948573024295" width="141.68130680170924" class="icon-icon-0" data-fill-palette-color="accent" id="icon-0"><g fill="#89939e" data-fill-palette-color="accent"><path fill-rule="evenodd" clip-rule="evenodd" d="M77.2 10H12.8C8.2 10 5 13.8 5 17.9v54.1c0 4.1 3.2 7.9 7.8 7.9h64.5c4.6 0 7.8-3.8 7.8-7.9V17.9C85 13.8 81.8 10 77.2 10zM12.8 17h64.5c1 0 1.8 0.6 1.8 0.9V33H11V17.9C11 17.6 11.7 17 12.8 17zM77.2 73H12.8c-1 0-1.8-0.6-1.8-0.9V37h68v35.1C79 72.4 78.3 73 77.2 73z" fill="#89939e" data-fill-palette-color="accent"></path><path fill-rule="evenodd" clip-rule="evenodd" d="M71.4 27.8c1.4 0 2.6-1.2 2.6-2.7 0-1.5-1.2-2.7-2.6-2.7-1.4 0-2.6 1.2-2.6 2.7C68.8 26.6 70 27.8 71.4 27.8z" fill="#89939e" data-fill-palette-color="accent"></path><path fill-rule="evenodd" clip-rule="evenodd" d="M60.9 27.8c1.4 0 2.6-1.2 2.6-2.7 0-1.5-1.2-2.7-2.6-2.7-1.5 0-2.6 1.2-2.6 2.7C58.2 26.6 59.4 27.8 60.9 27.8z" fill="#89939e" data-fill-palette-color="accent"></path><path fill-rule="evenodd" clip-rule="evenodd" d="M50.3 27.8c1.4 0 2.6-1.2 2.6-2.7 0-1.5-1.2-2.7-2.6-2.7-1.5 0-2.7 1.2-2.7 2.7C47.6 26.6 48.8 27.8 50.3 27.8z" fill="#89939e" data-fill-palette-color="accent"></path></g></svg></g></svg></g><g><rect width="118.91934659914537" height="8.067971359697962" y="114.571514370545" x="276.60065340085464" fill="#89939e" data-fill-palette-color="accent"></rect><rect width="118.91934659914537" height="8.067971359697962" y="114.571514370545" x="2.842170943040401e-14" fill="#89939e" data-fill-palette-color="accent"></rect><rect width="118.91934659914537" height="8.067971359697962" y="98.43557165114908" x="276.60065340085464" fill="#89939e" data-fill-palette-color="accent"></rect><rect width="118.91934659914537" height="8.067971359697962" y="98.43557165114908" x="2.842170943040401e-14" fill="#89939e" data-fill-palette-color="accent"></rect></g></svg></g><defs></defs></svg><rect width="395.52" height="234.2240016227869" fill="none" stroke="none" visibility="hidden"></rect></g></svg></g></svg>